<?xml version="1.0" encoding="UTF-8"?>
<svg id="SAPPS_isotype" xmlns="http://www.w3.org/2000/svg" viewBox="211.2 -17.2 582.7 575" fill="#011720">
  <!-- S/A monogram -->
  <path d="M443.05,287.62c48.19,44.72,80.12,112.19,67.56,152.75-9.84,31.8-26.69,54.56-50.42,68.34-23.73,13.77-50.55,16.41-80.44,7.92-.81-.23-90.52-18.34-48.92-122.83,6.98-14.59,62.86-131.36,69.84-145.95,14.05,14.16,28.92,27.27,42.37,39.77M771.47,509.77c-3.7-.73-7.41-2.22-11.12-4.45-10.38-6.66-19.27-16.31-26.69-26.69-7.41-11.12-13.34-22.23-17.78-34.09-1.48-2.97-216.91-408.2-216.91-408.2v-.75h-.75l-25.2,11.86-9.64,23.73-11.86,32.63c-19.27,41.53-29.95,64.59-32.09,69.22h-.13c-32.45-37.05,4.83-117.13,26.16-133.91,26.56-20.91,46.81-24.11,77.72-20.38,16.27,1.97,29.66,8.5,40.95,18.7,18.14,16.38,50.11,74.08,2.48,163.53-.31.58,11.89,18.56,12.22,18.02,54.7-92.67,51.14-208.33,51.14-208.33.14-.59-.13-1.2-.69-1.55-1.33-.81-12.02-7.31-13.34-8.13-.81-.48-1.89-.09-2.27.78-12.14,27.22-23.58,25.03-28.81,22.77-25.25-10.87-40.42-17.87-66.13-20.98-20.69-2.48-40.37-1.91-59.03,1.77-13.52,2.8-29.66,9.95-48.44,21.45-18.78,11.5-33.84,25.73-45.19,42.73-11.33,16.98-19.5,36.89-21.27,60.03-3.27,42.88,18.03,77.33,45.14,107.03-8.36,18.03-75.22,162.22-83.58,180.25-3.44,5.28-21,46.28-33.5,64.17-22.11,28.45-43.7,29.52-43.7,29.52v11.87h115.7c5.72,0,11.36,1.16,16.7,3.2,6.55,2.5,13.16,4.77,19.86,6.67,20,5.69,39.56,8.17,58.66,7.48,13.84-.66,31.08-5.19,51.69-13.56,20.63-8.39,38.03-20.05,52.25-35,14.23-14.94,25.25-33.39,31.7-55.73,11.22-38.83-1.06-70.48-14.94-101.06-15.7-34.61-40.56-63.34-69.86-88.92-22.39-19.53-45.06-37.97-61.33-58.09,2-4.19,12.03-25.13,30.06-62.81.44-1.33.69-2.06.73-2.22,0,0,182.09,325.53,184.28,331.09,24.25,61.34-51.91,57.08-51.91,57.08v11.87h183.14v-11.87c-2.38-.39-3.86-.63-4.45-.73Z"/>
  <!-- balance beam (centered) -->
  <path transform="translate(7 0)" d="M243.44,215.44s1.95-.3,5.61-.87c3.66-.52,9.02-1.61,15.83-2.31,13.66-1.39,33.16-4.38,56.56-6.22,11.69-1.03,24.38-2.11,37.78-2.83,13.41-.81,27.53-1.78,42.16-2.19,14.63-.42,29.73-1.39,45.09-1.39,15.36-.19,30.95-.38,46.56-.55,15.59.19,31.19.38,46.55.56,15.36.06,30.47.98,45.09,1.41,14.62.41,28.77,1.42,42.16,2.22,13.41.69,26.09,1.8,37.78,2.81,23.41,1.84,42.91,4.8,56.55,6.19,6.83.7,12.19,1.78,15.84,2.3,3.66.58,5.61.87,5.61.87v1.94s-124.8.48-249.58.95c-124.8-.47-249.59-.95-249.59-.95v-1.94Z"/>
  <!-- left pan -->
  <path fill="#7f6114" d="M262.92,264.94c3.39-8.88,6.16-18.02,9.17-27.05,2.55-7.66,4.97-15.36,7.27-23.12-.67,9.31-2.25,32.27-3.28,55.27-.37,7.45-1.09,14.91-1.25,21.91.03,6.98.66,13.5,1.25,19.09.3,2.72.45,5.61,2.06,6.34h-34c-.06-.31-.09-.8-.14-1.08,3.31-8.09,6.09-16.39,9.17-24.56,1.95-5.36,7.81-21.44,9.75-26.8ZM297.49,264.94c5.86,16.06,9.11,25,9.77,26.78,3.08,8.17,5.88,16.47,9.16,24.56-.05.36-.09.72-.16,1.09h-34.09c1.16-.22,1.52-.95,2.16-6.34.67-5.59,1.23-12.11,1.25-19.09-.16-7-.87-14.45-1.25-21.91-1.03-23.02-2.61-45.97-3.28-55.27,2.3,7.75,4.73,15.47,7.28,23.12,3.03,9.03,5.78,18.17,9.17,27.05M325.36,314.98c-26.2-67.98-40.77-105.75-43.69-113.3-.62-1.61-2.89-1.61-3.5,0-2.87,7.56-17.27,45.33-43.14,113.3l-.08.19c.02.11.02.17.02.19.48,6.27,13.08,28.27,45.48,28.7,30.87.41,43.97-18.02,44.91-29.08"/>
  <!-- right pan -->
  <path fill="#7f6114" d="M703.11,264.94c3.39-8.88,6.16-18.02,9.17-27.05,2.53-7.66,4.97-15.36,7.27-23.12-.67,9.31-2.25,32.27-3.28,55.27-.38,7.45-1.09,14.91-1.25,21.91.02,6.98.64,13.5,1.25,19.09.28,2.72.45,5.61,2.06,6.34h-34.02c-.05-.31-.08-.8-.12-1.08,3.3-8.09,6.09-16.39,9.17-24.56,1.95-5.36,7.8-21.44,9.75-26.8ZM737.67,264.94c5.86,16.06,9.11,25,9.77,26.78,3.08,8.17,5.88,16.47,9.16,24.56-.06.36-.11.72-.16,1.09h-34.09c1.16-.22,1.52-.95,2.16-6.34.66-5.59,1.22-12.11,1.25-19.09-.16-7-.87-14.45-1.25-21.91-1.03-23.02-2.61-45.97-3.28-55.27,2.3,7.75,4.73,15.47,7.28,23.12,3.02,9.03,5.78,18.17,9.17,27.05M765.55,314.98c-26.22-67.98-40.78-105.75-43.69-113.3-.62-1.61-2.89-1.61-3.5,0-2.89,7.56-17.27,45.33-43.14,113.3l-.08.19c0,.11.02.17.02.19.48,6.27,13.08,28.27,45.47,28.7,30.89.41,43.98-18.02,44.92-29.08"/>
</svg>
